<mxfile host="aLZ">
  <diagram id="pvH" name="In progress">
    <mxGraphModel dx="0" dy="0" background="#FFFAFA" grid="0" gridSize="10" guides="1" tooltips="1" connect="1" arrows="1" fold="1" page="1" pageScale="1" pageWidth="1169" pageHeight="827" math="0" shadow="0">
      <root>
        <mxCell id="page_root_pvH" parent="pvH"/>
        <mxCell id="node_root_pvH" parent="page_root_pvH"/>
        <mxCell id="pvH-1" value="DrawIO DSL" style="whiteSpace=wrap;html=1;rounded=1;glass=1;fontColor=#1F2D3D;text;fontSize=28;fontStyle=1;fillColor=none" vertex="1" parent="node_root_pvH">
          <mxGeometry x="300" y="0" width="400" height="80" as="geometry"/>
        </mxCell>
        <mxCell id="pvH-3" value="" style="whiteSpace=wrap;html=1;rounded=1;glass=1;fillColor=#d5e8d4;strokeColor=#82b366;fontColor=#333333" vertex="1" parent="node_root_pvH">
          <mxGeometry x="10" y="10" width="300" height="60" as="geometry"/>
        </mxCell>
      </root>
    </mxGraphModel>
  </diagram>
  <diagram id="U3w" name="To Do">
    <mxGraphModel dx="0" dy="0" background="#FFFAFA" grid="0" gridSize="10" guides="1" tooltips="1" connect="1" arrows="1" fold="1" page="1" pageScale="1" pageWidth="1169" pageHeight="827" math="0" shadow="0">
      <root>
        <mxCell id="page_root_U3w" parent="U3w"/>
        <mxCell id="node_root_U3w" parent="page_root_U3w"/>
        <mxCell id="U3w-1" value="add diff tool with support" style="whiteSpace=wrap;html=1;rounded=1;glass=1;fillColor=#dae8fc;strokeColor=#6c8ebf;fontColor=#333333" vertex="1" parent="node_root_U3w">
          <mxGeometry x="0" y="0" width="300" height="60" as="geometry"/>
        </mxCell>
        <mxCell id="U3w-2" value="add diff tool left hand side only option" style="whiteSpace=wrap;html=1;rounded=1;glass=1;fillColor=#dae8fc;strokeColor=#6c8ebf;fontColor=#333333" vertex="1" parent="node_root_U3w">
          <mxGeometry x="0" y="0" width="300" height="60" as="geometry"/>
        </mxCell>
        <mxCell id="U3w-3" value="add diff tool right hand side only option" style="whiteSpace=wrap;html=1;rounded=1;glass=1;fillColor=#dae8fc;strokeColor=#6c8ebf;fontColor=#333333" vertex="1" parent="node_root_U3w">
          <mxGeometry x="0" y="0" width="300" height="60" as="geometry"/>
        </mxCell>
        <mxCell id="U3w-4" value="add diff tool lhs/rhs differences" style="whiteSpace=wrap;html=1;rounded=1;glass=1;fillColor=#dae8fc;strokeColor=#6c8ebf;fontColor=#333333" vertex="1" parent="node_root_U3w">
          <mxGeometry x="0" y="0" width="300" height="60" as="geometry"/>
        </mxCell>
        <mxCell id="U3w-5" value="add diff tool open in vscode option" style="whiteSpace=wrap;html=1;rounded=1;glass=1;fillColor=#dae8fc;strokeColor=#6c8ebf;fontColor=#333333" vertex="1" parent="node_root_U3w">
          <mxGeometry x="0" y="0" width="300" height="60" as="geometry"/>
        </mxCell>
        <mxCell id="U3w-6" value="rag new should work like rails new" style="whiteSpace=wrap;html=1;rounded=1;glass=1;fillColor=#dae8fc;strokeColor=#6c8ebf;fontColor=#333333" vertex="1" parent="node_root_U3w">
          <mxGeometry x="0" y="0" width="300" height="60" as="geometry"/>
        </mxCell>
        <mxCell id="U3w-7" value="rag profile is the default option" style="whiteSpace=wrap;html=1;rounded=1;glass=1;fillColor=#dae8fc;strokeColor=#6c8ebf;fontColor=#333333" vertex="1" parent="node_root_U3w">
          <mxGeometry x="0" y="0" width="300" height="60" as="geometry"/>
        </mxCell>
      </root>
    </mxGraphModel>
  </diagram>
  <diagram id="CMT" name="Done">
    <mxGraphModel dx="0" dy="0" background="#FFFAFA" grid="0" gridSize="10" guides="1" tooltips="1" connect="1" arrows="1" fold="1" page="1" pageScale="1" pageWidth="1169" pageHeight="827" math="0" shadow="0">
      <root>
        <mxCell id="page_root_CMT" parent="CMT"/>
        <mxCell id="node_root_CMT" parent="page_root_CMT"/>
        <mxCell id="CMT-1" value="add project plan to do list" style="whiteSpace=wrap;html=1;rounded=1;glass=1;fillColor=#f8cecc;strokeColor=#b85450;fontColor=#333333" vertex="1" parent="node_root_CMT">
          <mxGeometry x="0" y="0" width="300" height="60" as="geometry"/>
        </mxCell>
      </root>
    </mxGraphModel>
  </diagram>
</mxfile>